<svg width="22" height="22" viewBox="0 0 22 22" fill="none" xmlns="http://www.w3.org/2000/svg">
<path d="M15.1562 2.03125H15.375C15.2547 2.03125 15.1562 1.93281 15.1562 1.8125V2.03125H6.84375V1.8125C6.84375 1.93281 6.74531 2.03125 6.625 2.03125H6.84375V4H4.875V1.8125C4.875 0.847266 5.65977 0.0625 6.625 0.0625H15.375C16.3402 0.0625 17.125 0.847266 17.125 1.8125V4H15.1562V2.03125ZM1.375 4H20.625C21.109 4 21.5 4.39102 21.5 4.875V5.75C21.5 5.87031 21.4016 5.96875 21.2812 5.96875H19.6297L18.9543 20.2695C18.9105 21.202 18.1395 21.9375 17.207 21.9375H4.79297C3.85781 21.9375 3.08945 21.2047 3.0457 20.2695L2.37031 5.96875H0.71875C0.598437 5.96875 0.5 5.87031 0.5 5.75V4.875C0.5 4.39102 0.891016 4 1.375 4ZM5.00352 19.9688H16.9965L17.6582 5.96875H4.3418L5.00352 19.9688Z" fill="#FF0000"/>
</svg>
